<?xml version="1.0" standalone="no"?>
<!DOCTYPE svg PUBLIC "-//W3C//DTD SVG 20010904//EN"
 "http://www.w3.org/TR/2001/REC-SVG-20010904/DTD/svg10.dtd">
<svg version="1.0" xmlns="http://www.w3.org/2000/svg"
 width="460.000000pt" height="460.000000pt" viewBox="0 0 460.000000 460.000000"
 preserveAspectRatio="xMidYMid meet">
<metadata>
Created by potrace 1.11, written by Peter Selinger 2001-2013
</metadata>
<g transform="translate(0.000000,460.000000) scale(0.100000,-0.100000)"
fill="#000000" stroke="none">
<path d="M2077 3841 c-54 -22 -142 -85 -194 -140 -74 -77 -135 -209 -163 -349
-15 -73 -3 -143 36 -224 18 -37 20 -50 11 -60 -211 -222 -431 -586 -545 -898
-25 -68 -24 -305 2 -380 55 -161 125 -254 254 -341 42 -28 77 -58 77 -67 0
-11 -20 -21 -68 -33 -118 -30 -190 -96 -222 -204 -34 -118 -15 -205 63 -285
l54 -55 -5 -145 c-4 -117 -9 -156 -27 -205 -13 -33 -27 -65 -32 -72 -5 -7 -7
-17 -3 -23 11 -17 32 -11 49 15 20 30 36 32 36 6 0 -17 11 -20 125 -26 182
-11 171 -19 167 117 -3 96 0 121 17 161 44 102 88 36 101 -152 6 -76 13 -117
22 -122 7 -5 304 -9 661 -9 l647 0 10 26 c6 14 10 45 10 70 0 54 12 57 29 6 7
-20 24 -52 38 -70 l24 -32 149 0 c85 0 151 4 155 10 3 5 -5 26 -18 47 -60 95
-123 249 -147 360 -6 26 -13 55 -16 65 -3 10 10 32 36 59 22 23 52 67 66 97
23 48 25 65 22 136 -2 66 -9 92 -33 139 -52 104 -180 199 -287 213 -26 4 -48
11 -48 16 0 6 13 25 29 44 43 48 77 110 109 195 25 70 27 83 27 244 0 186 -7
227 -71 404 -122 338 -438 719 -716 866 l-66 35 19 63 c27 88 26 237 -2 312
-28 76 -87 147 -146 176 -66 32 -170 36 -236 10z m-17 -115 c0 -17 -18 -31
-47 -39 -26 -6 -36 4 -27 27 9 24 74 36 74 12z m-134 -116 c-15 -23 -40 -49
-56 -58 -49 -29 -61 -71 -34 -128 12 -25 15 -48 9 -89 -7 -61 -21 -77 -42 -49
-11 14 -14 42 -11 109 5 107 37 184 101 241 53 48 72 32 33 -26z m-6 -104 c0
-8 -5 -18 -10 -21 -17 -11 -40 3 -34 20 8 19 44 20 44 1z m526 -709 c64 -33
112 -114 95 -159 -12 -32 -65 -73 -106 -82 -131 -29 -156 -34 -395 -66 -291
-39 -359 -22 -405 101 -21 58 -13 75 50 117 109 72 343 112 620 108 80 -2 119
-7 141 -19z m-889 -89 c-3 -8 -6 -5 -6 6 -1 11 2 17 5 13 3 -3 4 -12 1 -19z
m-52 -105 c-134 -277 -175 -419 -175 -606 1 -188 53 -284 232 -428 19 -15 19
-16 1 -47 -10 -18 -22 -32 -26 -32 -18 0 -95 61 -149 118 -123 128 -165 314
-119 514 25 106 48 165 128 323 58 116 135 247 141 241 2 -3 -12 -40 -33 -83z
m769 -594 c10 -104 7 -175 -8 -188 -8 -7 -34 -13 -58 -14 l-43 -2 -3 121 c-3
117 -2 121 20 132 13 6 37 11 54 11 31 1 31 0 38 -60z m-134 -84 c0 -115 -2
-125 -18 -125 -20 0 -42 21 -61 57 -15 29 -25 134 -17 167 6 23 11 26 51 26
l45 0 0 -125z m-483 -447 c18 -18 33 -38 33 -45 0 -16 -1 -16 -50 3 -28 12
-39 21 -36 31 3 8 6 21 6 29 0 21 11 17 47 -18z m107 -624 c37 -36 3 -84 -44
-61 -13 7 -28 19 -33 29 -24 37 44 66 77 32z m-328 -316 c-4 -34 -12 -71 -18
-82 -16 -30 -22 -3 -9 36 6 17 11 48 11 69 0 22 5 39 11 39 8 0 9 -18 5 -62z"/>
</g>
</svg>
